<svg xmlns="http://www.w3.org/2000/svg" width="1240" height="1240"><path d="M0 620.001v620.001l620.25-.251 620.25-.251.251-619.75.251-619.75H0v620.001m.497.499c0 341 .114 480.649.253 310.332s.139-449.317 0-620S.497 279.5.497 620.5M384.47 326.033c-8.064 1.067-17.265 4.239-26.97 9.297-6.029 3.142-10.366 6.511-17.602 13.67-10.159 10.051-14.791 16.927-19.226 28.544-5.985 15.676-5.673 2.016-5.659 247.794.015 257.781-.821 234.476 9.132 254.598 4.631 9.362 6.37 11.712 15.29 20.655 8.702 8.725 11.351 10.723 19.565 14.764 5.225 2.57 13.325 5.679 18 6.909l8.5 2.236h459l8.5-2.236c4.675-1.23 12.775-4.339 18-6.909 8.214-4.041 10.863-6.039 19.565-14.764 8.92-8.943 10.659-11.293 15.29-20.655 9.952-20.121 9.118 3.094 9.124-253.936.004-148.527-.341-226.7-1.02-231-1.421-9.006-4.486-18.083-9.288-27.5-3.212-6.299-6.215-10.14-14.125-18.065-8.967-8.984-11.173-10.616-20.546-15.202-19.68-9.628 7.792-8.66-251-8.84-125.675-.087-231.214.201-234.53.64m8.03 53.891c-8.827 1.522-17.004 7.816-20.886 16.076l-2.114 4.5v449l2.129 4.5c2.686 5.675 8.333 11.308 14.271 14.233l4.6 2.267h449l4.728-2.329c6.333-3.118 13.119-10.813 14.877-16.868 2.087-7.184 2.087-445.422 0-452.606-1.757-6.052-8.473-13.667-14.844-16.832L839.5 379.5l-221.5-.132c-121.825-.073-223.3.177-225.5.556m321.832 150.981c-1.742.445-5.117 1.97-7.5 3.388-2.383 1.419-30.649 28.926-62.813 61.128l-58.481 58.548-31.519-31.388c-29.797-29.674-31.816-31.476-36.951-32.985-6.754-1.985-10.323-2.006-16.74-.101-6.346 1.885-13.431 8.025-16.461 14.266-3.194 6.579-3.174 16.916.045 23.239 1.55 3.045 15.595 17.848 43.44 45.786 45.692 45.846 46.463 46.464 57.987 46.464 12.245 0 9.182 2.641 86.445-74.54 77.378-77.297 75.604-75.252 75.577-87.103-.015-6.939-2.827-14.377-7.165-18.95-5.864-6.184-17.889-9.788-25.864-7.752" fill="undefined" fill-rule="evenodd"/></svg>